<svg width="30" height="30" viewBox="0 0 30 30" fill="none" xmlns="http://www.w3.org/2000/svg">
<path d="M22.5 15C22.4939 14.3423 22.2289 13.7136 21.7625 13.25L16.4 7.87497C16.1658 7.64215 15.849 7.51147 15.5188 7.51147C15.1885 7.51147 14.8717 7.64215 14.6375 7.87497C14.5203 7.99117 14.4273 8.12942 14.3639 8.28174C14.3004 8.43407 14.2678 8.59745 14.2678 8.76247C14.2678 8.92748 14.3004 9.09086 14.3639 9.24319C14.4273 9.39551 14.5203 9.53376 14.6375 9.64997L18.75 13.75H6.25C5.91848 13.75 5.60054 13.8817 5.36612 14.1161C5.1317 14.3505 5 14.6684 5 15C5 15.3315 5.1317 15.6494 5.36612 15.8838C5.60054 16.1183 5.91848 16.25 6.25 16.25H18.75L14.6375 20.3625C14.4021 20.5962 14.2692 20.9138 14.2681 21.2455C14.2669 21.5773 14.3975 21.8958 14.6313 22.1312C14.865 22.3666 15.1826 22.4995 15.5143 22.5007C15.846 22.5018 16.1646 22.3712 16.4 22.1375L21.7625 16.7625C22.232 16.2958 22.4972 15.6619 22.5 15Z" fill="black"/>
</svg>
