<svg width="24" height="24" viewBox="0 0 24 24" fill="none" xmlns="http://www.w3.org/2000/svg">
<path d="M13.8169 14.2661L17.7508 10.4268C17.9104 10.2701 18 10.0581 18 9.83712C18 9.61614 17.9104 9.40414 17.7508 9.24742C17.6711 9.16902 17.5763 9.10679 17.4719 9.06433C17.3674 9.02186 17.2554 9 17.1423 9C17.0291 9 16.9171 9.02186 16.8127 9.06433C16.7082 9.10679 16.6134 9.16902 16.5337 9.24742L12.6084 13.0951C12.5287 13.1735 12.4339 13.2357 12.3295 13.2782C12.2251 13.3207 12.113 13.3425 11.9999 13.3425C11.8868 13.3425 11.7747 13.3207 11.6703 13.2782C11.5659 13.2357 11.4711 13.1735 11.3914 13.0951L7.46606 9.24742C7.3058 9.08991 7.08801 9.00099 6.86057 9.0002C6.63314 8.99942 6.4147 9.08684 6.25332 9.24324C6.09193 9.39964 6.00081 9.6122 6.00001 9.83416C5.9992 10.0561 6.08878 10.2693 6.24903 10.4268L10.1829 14.2661C10.665 14.736 11.3185 15 11.9999 15C12.6813 15 13.3348 14.736 13.8169 14.2661Z" fill="white"/>
</svg>
