<svg width="22" height="24" viewBox="0 0 22 24" fill="none" xmlns="http://www.w3.org/2000/svg">
<path d="M13.1198 12.882C13.6838 13.448 13.9948 14.199 13.9948 14.999C13.9948 15.799 13.6818 16.554 13.1147 17.12C11.9847 18.255 10.0077 18.253 8.87375 17.12C8.30775 16.554 7.99475 15.801 7.99475 14.999C7.99475 14.197 8.30675 13.444 8.86275 12.889L10.6508 11.154C10.7478 11.059 10.8737 11.012 10.9987 11.012C11.1237 11.012 11.2487 11.06 11.3457 11.154L13.1198 12.882ZM18.7727 20.778C16.6947 22.855 13.9318 24 10.9948 24C8.05775 24 5.29475 22.855 3.21675 20.778C-1.07225 16.488 -1.07225 9.51 3.21675 5.221L7.20875 1.533C8.21175 0.552 9.56275 0 10.9948 0C12.4268 0 13.7778 0.552 14.8018 1.553L18.7447 5.195C23.0617 9.511 23.0617 16.49 18.7727 20.779V20.778ZM15.9948 15C15.9948 13.664 15.4738 12.408 14.5297 11.465L14.5208 11.456L12.7408 9.722C11.7657 8.774 10.2357 8.772 9.25775 9.72L7.45975 11.465C6.51575 12.408 5.99475 13.664 5.99475 15C5.99475 16.336 6.51575 17.592 7.45975 18.535C8.40375 19.479 9.65975 20 10.9948 20C12.3298 20 13.5868 19.479 14.5297 18.535C15.4738 17.592 15.9948 16.336 15.9948 15Z" fill="white"/>
</svg>
