<svg width="22" height="22" viewBox="0 0 22 22" fill="none" xmlns="http://www.w3.org/2000/svg">
<path d="M11 0C5.879 0 0 1.25 0 11C0 20.75 5.879 22 11 22C11.432 22 11.854 21.99 12.266 21.968C13.789 21.887 14.98 20.599 14.977 19.037V19.017C14.977 16.184 16.162 15.646 18.348 15.646C18.536 15.646 18.72 15.651 18.899 15.662C20.421 15.764 21.752 14.595 21.903 13.077C21.967 12.429 22.001 11.73 22.001 11C22 1.25 16.121 0 11 0ZM4.085 8.84C4.085 8.012 4.757 7.34 5.585 7.34C6.413 7.34 7.085 8.012 7.085 8.84C7.085 9.668 6.413 10.34 5.585 10.34C4.757 10.34 4.085 9.668 4.085 8.84ZM6.574 16.18C5.746 16.18 5.074 15.508 5.074 14.68C5.074 13.852 5.746 13.18 6.574 13.18C7.402 13.18 8.074 13.852 8.074 14.68C8.074 15.508 7.402 16.18 6.574 16.18ZM10.34 6.797C9.512 6.797 8.84 6.125 8.84 5.297C8.84 4.469 9.512 3.797 10.34 3.797C11.168 3.797 11.84 4.469 11.84 5.297C11.84 6.125 11.168 6.797 10.34 6.797ZM15.957 9.254C15.129 9.254 14.457 8.582 14.457 7.754C14.457 6.926 15.129 6.254 15.957 6.254C16.785 6.254 17.457 6.926 17.457 7.754C17.457 8.582 16.785 9.254 15.957 9.254Z" fill="white"/>
</svg>
