<svg width="32" height="33" viewBox="0 0 32 33" fill="none" xmlns="http://www.w3.org/2000/svg">
<path d="M5.90235 7.9718C5.42053 7.46931 5.4206 6.65501 5.90235 6.15247C6.38458 5.64986 7.16718 5.64986 7.64942 6.15247L15.8311 14.6808L24.0137 6.15247C24.4959 5.64986 25.2775 5.64986 25.7598 6.15247C26.2418 6.65506 26.2419 7.46926 25.7598 7.9718L17.5772 16.5001L25.7598 25.0284C26.2418 25.531 26.2419 26.3452 25.7598 26.8478C25.2775 27.3504 24.4959 27.3504 24.0137 26.8478L15.8311 18.3204L7.64942 26.8478C7.16719 27.3504 6.38458 27.3504 5.90235 26.8478C5.42054 26.3453 5.42059 25.531 5.90235 25.0284L14.085 16.5001L5.90235 7.9718Z" fill="#888888"/>
</svg>
