<svg width="28" height="28" viewBox="0 0 28 28" fill="none" xmlns="http://www.w3.org/2000/svg">
<g clip-path="url(#clip0_526_600)">
<path d="M26.3001 9.89447L18.1055 1.6998C15.8433 -0.562368 12.1578 -0.562368 9.89563 1.6998L1.6998 9.89447C-0.562368 12.1578 -0.562368 15.841 1.6998 18.1043L9.89447 26.299C11.0261 27.4306 12.5125 27.9953 14 27.9953C15.4875 27.9953 16.9738 27.4306 18.1055 26.299L26.3001 18.1043C28.5623 15.841 28.5623 12.1578 26.3001 9.89447ZM19.9826 15.3078L17.1581 18.1323C16.9306 18.3598 16.632 18.4741 16.3333 18.4741C16.0346 18.4741 15.736 18.3598 15.5085 18.1323C15.0523 17.6761 15.0523 16.9388 15.5085 16.4826L17.9911 14H11.6666C11.0226 14 10.5 14.5226 10.5 15.1666V18.6666C10.5 19.3118 9.97847 19.8333 9.3333 19.8333C8.68813 19.8333 8.16663 19.3118 8.16663 18.6666V15.1666C8.16663 13.237 9.73697 11.6666 11.6666 11.6666H17.9911L15.5085 9.18397C15.0523 8.7278 15.0523 7.99047 15.5085 7.5343C15.9646 7.07813 16.702 7.07813 17.1581 7.5343L19.9826 10.3588C21.3476 11.7238 21.3476 13.9428 19.9826 15.3078Z" fill="#48EC95"/>
</g>
<defs>
<clipPath id="clip0_526_600">
<rect width="28" height="28" fill="white"/>
</clipPath>
</defs>
</svg>
