<svg width="28" height="28" viewBox="0 0 28 28" fill="none" xmlns="http://www.w3.org/2000/svg">
<g clip-path="url(#clip0_526_633)">
<path d="M6.84608 18.1801C5.61564 17.0435 4.67711 15.6273 4.10992 14.0512C3.54272 12.4751 3.36356 10.7856 3.58758 9.1256C3.80909 7.44241 4.43544 5.83803 5.41293 4.44997C6.39043 3.06191 7.68992 1.93157 9.20004 1.15584C10.7101 0.3801 12.3858 -0.0178974 14.0835 -0.00404493C15.7811 0.0098075 17.4501 0.435097 18.9474 1.23537C20.4446 2.03565 21.7255 3.18704 22.6802 4.59087C23.6349 5.99469 24.235 7.60908 24.429 9.29566C24.623 10.9822 24.4052 12.6907 23.7942 14.2747C23.1832 15.8586 22.1972 17.2708 20.9207 18.3901C20.0988 19.0968 19.4607 19.9923 19.0611 20.9999H15.1667V12.6186C15.8468 12.3782 16.436 11.9335 16.8536 11.3454C17.2713 10.7573 17.4971 10.0546 17.5001 9.33327C17.5001 9.02385 17.3772 8.7271 17.1584 8.50831C16.9396 8.28952 16.6428 8.1666 16.3334 8.1666C16.024 8.1666 15.7272 8.28952 15.5085 8.50831C15.2897 8.7271 15.1667 9.02385 15.1667 9.33327C15.1667 9.64269 15.0438 9.93943 14.825 10.1582C14.6062 10.377 14.3095 10.4999 14.0001 10.4999C13.6907 10.4999 13.3939 10.377 13.1751 10.1582C12.9563 9.93943 12.8334 9.64269 12.8334 9.33327C12.8334 9.02385 12.7105 8.7271 12.4917 8.50831C12.2729 8.28952 11.9762 8.1666 11.6667 8.1666C11.3573 8.1666 11.0606 8.28952 10.8418 8.50831C10.623 8.7271 10.5001 9.02385 10.5001 9.33327C10.5031 10.0546 10.7288 10.7573 11.1465 11.3454C11.5642 11.9335 12.1534 12.3782 12.8334 12.6186V20.9999H8.82358C8.37756 19.9272 7.70267 18.9649 6.84608 18.1801ZM9.33341 23.3333V23.6949C9.33465 24.8363 9.7886 25.9306 10.5957 26.7377C11.4028 27.5447 12.497 27.9987 13.6384 27.9999H14.3617C15.5031 27.9987 16.5974 27.5447 17.4045 26.7377C18.2116 25.9306 18.6655 24.8363 18.6667 23.6949V23.3333H9.33341Z" fill="#48EC95"/>
</g>
<defs>
<clipPath id="clip0_526_633">
<rect width="28" height="28" fill="white"/>
</clipPath>
</defs>
</svg>
