<svg width="24" height="24" viewBox="0 0 24 24" fill="none" xmlns="http://www.w3.org/2000/svg">
<path d="M22.5402 8.47825L15.5162 1.45425C13.5772 -0.48475 10.4183 -0.48475 8.47925 1.45425L1.45425 8.47825C-0.48475 10.4183 -0.48475 13.5753 1.45425 15.5153L8.47825 22.5393C9.44825 23.5093 10.7222 23.9933 11.9972 23.9933C13.2722 23.9933 14.5462 23.5093 15.5162 22.5393L22.5402 15.5153C24.4792 13.5753 24.4792 10.4183 22.5402 8.47825ZM21.1262 14.1013L14.1022 21.1253C12.9422 22.2833 11.0532 22.2833 9.89325 21.1253L2.86825 14.1013C1.70925 12.9413 1.70925 11.0523 2.86825 9.89225L9.89325 2.86825C11.0532 1.70825 12.9422 1.70825 14.1022 2.86825L21.1262 9.89225C22.2852 11.0523 22.2852 12.9413 21.1262 14.1013ZM17.1252 8.87525C18.2952 10.0453 18.2952 11.9473 17.1252 13.1173L14.7042 15.5383C14.5092 15.7333 14.2532 15.8313 13.9972 15.8313C13.7413 15.8313 13.4852 15.7333 13.2902 15.5383C12.8993 15.1473 12.8993 14.5153 13.2902 14.1243L15.4182 11.9963H10.9972C10.4452 11.9963 9.99725 12.4443 9.99725 12.9963V15.9963C9.99725 16.5493 9.55025 16.9963 8.99725 16.9963C8.44425 16.9963 7.99725 16.5493 7.99725 15.9963V12.9963C7.99725 11.3423 9.34325 9.99625 10.9972 9.99625H15.4182L13.2902 7.86825C12.8993 7.47725 12.8993 6.84525 13.2902 6.45425C13.6812 6.06325 14.3132 6.06325 14.7042 6.45425L17.1252 8.87525Z" fill="#48EC95"/>
</svg>
