<svg width="24" height="24" viewBox="0 0 24 24" fill="none" xmlns="http://www.w3.org/2000/svg">
<g clip-path="url(#clip0_526_611)">
<path d="M23.3333 3.88889C23.3333 1.74417 21.5892 0 19.4444 0C17.2997 0 15.5556 1.74417 15.5556 3.88889C15.5556 3.95403 15.5721 4.01528 15.575 4.07944L7.18083 6.7025C6.49347 5.60097 5.28014 4.86111 3.88889 4.86111C1.74417 4.86111 0 6.60528 0 8.75C0 10.8947 1.74417 12.6389 3.88889 12.6389C4.66861 12.6389 5.39292 12.4026 6.0025 12.006L12.1372 17.6293C11.8465 18.1737 11.6667 18.7853 11.6667 19.4444C11.6667 21.5892 13.4108 23.3333 15.5556 23.3333C17.7003 23.3333 19.4444 21.5892 19.4444 19.4444C19.4444 17.9735 18.6142 16.7067 17.4067 16.0456L19.4746 7.77486C21.6047 7.75833 23.3333 6.02292 23.3333 3.88889ZM16.1525 5.93639C16.5074 6.50417 17.0042 6.965 17.5933 7.28778L15.5264 15.5594C14.7583 15.5653 14.0447 15.7976 13.4429 16.1885L7.3082 10.5651C7.59889 10.0207 7.77875 9.40917 7.77875 8.75C7.77875 8.68486 7.76222 8.62361 7.75931 8.55944L16.1525 5.93639Z" fill="#48EC95"/>
</g>
<defs>
<clipPath id="clip0_526_611">
<rect width="23.3333" height="23.3333" fill="white"/>
</clipPath>
</defs>
</svg>
