<svg width="20" height="20" viewBox="0 0 20 20" fill="none" xmlns="http://www.w3.org/2000/svg">
<g clip-path="url(#clip0_526_608)">
<path d="M16.6667 0C14.8283 0 13.3333 1.495 13.3333 3.33333C13.3333 3.38917 13.3475 3.44167 13.35 3.49667L6.155 5.745C5.56583 4.80083 4.52583 4.16667 3.33333 4.16667C1.495 4.16667 0 5.66167 0 7.5C0 9.33833 1.495 10.8333 3.33333 10.8333C4.00167 10.8333 4.6225 10.6308 5.145 10.2908L10.4033 15.1108C10.1542 15.5775 10 16.1017 10 16.6667C10 18.505 11.495 20 13.3333 20C15.1717 20 16.6667 18.505 16.6667 16.6667C16.6667 15.4058 15.955 14.32 14.92 13.7533L16.6925 6.66417C18.5183 6.65 20 5.1625 20 3.33333C20 1.50417 18.505 0 16.6667 0ZM3.33333 9.16667C2.4125 9.16667 1.66667 8.42083 1.66667 7.5C1.66667 6.57917 2.4125 5.83333 3.33333 5.83333C4.25417 5.83333 5 6.57917 5 7.5C5 8.42083 4.25417 9.16667 3.33333 9.16667ZM15 16.6667C15 17.5875 14.2542 18.3333 13.3333 18.3333C12.4125 18.3333 11.6667 17.5875 11.6667 16.6667C11.6667 15.7458 12.4125 15 13.3333 15C14.2542 15 15 15.7458 15 16.6667ZM13.3075 13.3358C12.6492 13.3408 12.0375 13.54 11.5217 13.875L6.26333 9.055C6.5125 8.58833 6.66667 8.06417 6.66667 7.49917C6.66667 7.44333 6.6525 7.39083 6.65 7.33583L13.845 5.0875C14.1492 5.57417 14.575 5.96917 15.08 6.24583L13.3083 13.3358H13.3075ZM16.6667 5C15.7458 5 15 4.25417 15 3.33333C15 2.4125 15.7458 1.66667 16.6667 1.66667C17.5875 1.66667 18.3333 2.4125 18.3333 3.33333C18.3333 4.25417 17.5875 5 16.6667 5Z" fill="#48EC95"/>
</g>
<defs>
<clipPath id="clip0_526_608">
<rect width="20" height="20" fill="white"/>
</clipPath>
</defs>
</svg>
