<svg width="28" height="28" viewBox="0 0 28 28" fill="none" xmlns="http://www.w3.org/2000/svg">
<path d="M16.3333 4.66667C16.3333 4.02267 16.8548 3.5 17.5 3.5H19.8333C22.407 3.5 24.5 5.593 24.5 8.16667V10.5C24.5 11.144 23.9785 11.6667 23.3333 11.6667C22.6882 11.6667 22.1667 11.144 22.1667 10.5V8.16667C22.1667 6.87983 21.1202 5.83333 19.8333 5.83333H17.5C16.8548 5.83333 16.3333 5.31067 16.3333 4.66667ZM10.5 22.1667H8.16667C6.87983 22.1667 5.83333 21.1202 5.83333 19.8333V17.5C5.83333 16.856 5.31183 16.3333 4.66667 16.3333C4.0215 16.3333 3.5 16.856 3.5 17.5V19.8333C3.5 22.407 5.593 24.5 8.16667 24.5H10.5C11.1452 24.5 11.6667 23.9773 11.6667 23.3333C11.6667 22.6893 11.1452 22.1667 10.5 22.1667ZM14 7C14 10.8605 10.8605 14 7 14C3.1395 14 0 10.8605 0 7C0 3.1395 3.1395 0 7 0C10.8605 0 14 3.1395 14 7ZM4.66667 4.66667C4.66667 5.95583 5.71083 7 7 7C8.28917 7 9.33333 5.95583 9.33333 4.66667C9.33333 3.3775 8.28917 2.33333 7 2.33333C5.71083 2.33333 4.66667 3.3775 4.66667 4.66667ZM10.2387 10.3483C9.7195 9.07083 8.47233 8.16667 7.00933 8.16667H6.99067C5.52767 8.16667 4.27817 9.06967 3.76017 10.346C4.60017 11.1603 5.74117 11.6667 7.00117 11.6667C8.26117 11.6667 9.39867 11.1615 10.2398 10.3483H10.2387ZM28 21C28 24.8605 24.8605 28 21 28C17.1395 28 14 24.8605 14 21C14 17.1395 17.1395 14 21 14C24.8605 14 28 17.1395 28 21ZM18.6667 18.6667C18.6667 19.9558 19.7108 21 21 21C22.2892 21 23.3333 19.9558 23.3333 18.6667C23.3333 17.3775 22.2892 16.3333 21 16.3333C19.7108 16.3333 18.6667 17.3775 18.6667 18.6667ZM24.2387 24.3483C23.7195 23.0708 22.4723 22.1667 21.0093 22.1667H20.9907C19.5277 22.1667 18.2782 23.0697 17.7602 24.346C18.6002 25.1603 19.7412 25.6667 21.0012 25.6667C22.2612 25.6667 23.3987 25.1615 24.2398 24.3483H24.2387Z" fill="#48EC95"/>
</svg>
