<svg width="20" height="20" viewBox="0 0 20 20" fill="none" xmlns="http://www.w3.org/2000/svg">
<g clip-path="url(#clip0_526_643)">
<path d="M12.49 10.6047C12.6217 12.0881 11.4567 13.3331 10 13.3331H6.685C6.10917 13.3331 5.70083 12.7781 5.8725 12.2289C6.29083 10.8881 7.48583 8.75805 9.40583 8.38888C10.8683 8.10722 12.3583 9.12138 12.49 10.6047ZM19.1667 7.49972C18.7058 7.49972 18.3333 7.87222 18.3333 8.33305V12.4997C18.3333 13.8781 17.2117 14.9997 15.8333 14.9997H4.16667C2.78833 14.9997 1.66667 13.8781 1.66667 12.4997V5.83305C1.66667 4.45472 2.78833 3.33305 4.16667 3.33305H10.8333C11.2942 3.33305 11.6667 2.96055 11.6667 2.49972C11.6667 2.03888 11.2942 1.66638 10.8333 1.66638H4.16667C1.86917 1.66638 0 3.53555 0 5.83305V12.4997C0 14.7972 1.86917 16.6664 4.16667 16.6664H9.16667V18.3331H6.66667C6.20667 18.3331 5.83333 18.7056 5.83333 19.1664C5.83333 19.6272 6.20667 19.9997 6.66667 19.9997H13.3333C13.7942 19.9997 14.1667 19.6272 14.1667 19.1664C14.1667 18.7056 13.7942 18.3331 13.3333 18.3331H10.8333V16.6664H15.8333C18.1308 16.6664 20 14.7972 20 12.4997V8.33305C20 7.87222 19.6275 7.49972 19.1667 7.49972ZM11.3217 7.23722C11.3275 7.23972 11.3342 7.24222 11.34 7.24555C11.66 7.38555 12.0317 7.29472 12.2642 7.03388L16.965 1.92555C17.255 1.60138 17.7533 1.57388 18.0767 1.86388C18.0875 1.87388 18.0975 1.88305 18.1083 1.89388C18.4158 2.20055 18.4158 2.69805 18.1092 3.00555C18.1092 3.00555 18.1092 3.00555 18.1083 3.00638L13.2383 7.74472C12.9625 8.02055 12.9233 8.44805 13.1358 8.77555C13.1392 8.78055 13.1425 8.78555 13.145 8.78972C13.4275 9.23055 14.0433 9.29472 14.4133 8.92472L19.2833 4.18722C20.24 3.22888 20.24 1.67638 19.2833 0.71805C18.3258 -0.240283 16.7733 -0.241116 15.815 0.716384C15.7825 0.748884 11.0142 5.92972 11.0142 5.92972C10.635 6.35555 10.7983 7.01138 11.3217 7.23722Z" fill="#3BD7CA"/>
</g>
<defs>
<clipPath id="clip0_526_643">
<rect width="20" height="20" fill="white"/>
</clipPath>
</defs>
</svg>
