<svg width="24" height="24" viewBox="0 0 24 24" fill="none" xmlns="http://www.w3.org/2000/svg">
<g clip-path="url(#clip0_526_646)">
<path d="M15.5439 11.4004C15.6975 13.131 14.3383 14.5835 12.6389 14.5835H8.77139C8.09958 14.5835 7.62319 13.936 7.82347 13.2953C8.31153 11.731 9.70569 9.24596 11.9457 8.81526C13.6519 8.48665 15.3903 9.66984 15.5439 11.4004ZM15.5769 7.84012C16.2964 8.38262 16.8204 9.11276 17.1432 9.92165L22.645 4.00568C23.5618 3.08984 23.5637 1.60429 22.6479 0.687483C21.7331 -0.22835 20.2494 -0.229323 19.3336 0.685539C19.3025 0.71665 13.9154 7.01762 13.9154 7.01762C14.5075 7.18776 15.0743 7.46096 15.5769 7.84012ZM16.2254 14.949C15.3076 15.9523 14 16.5289 12.6399 16.5289H8.77236C7.84097 16.5289 6.95625 16.0816 6.405 15.333C5.85375 14.5844 5.69042 13.6064 5.9675 12.7178C6.67625 10.4505 8.51569 7.63401 11.3779 6.96707L15.644 1.94651H4.86111C2.18069 1.94457 0 4.12526 0 6.80568V14.5835C0 17.2639 2.18069 19.4446 4.86111 19.4446H10.6944V21.389H7.77778C7.24111 21.389 6.80556 21.8236 6.80556 22.3612C6.80556 22.8989 7.24111 23.3335 7.77778 23.3335H15.5556C16.0932 23.3335 16.5278 22.8989 16.5278 22.3612C16.5278 21.8236 16.0932 21.389 15.5556 21.389H12.6389V19.4446H18.4722C21.1526 19.4446 23.3333 17.2639 23.3333 14.5835V6.11054L17.4115 12.4747C17.256 13.3886 16.8593 14.2539 16.2254 14.9471V14.949Z" fill="#3BD7CA"/>
</g>
<defs>
<clipPath id="clip0_526_646">
<rect width="23.3333" height="23.3333" fill="white"/>
</clipPath>
</defs>
</svg>
