<svg width="28" height="28" viewBox="0 0 28 28" fill="none" xmlns="http://www.w3.org/2000/svg">
<g clip-path="url(#clip0_526_657)">
<path d="M12.3316 12.8218C12.5999 12.9734 12.8916 13.0434 13.1833 13.0434C13.8016 13.0434 14.3966 12.7168 14.7116 12.1451C15.1783 11.3051 14.8866 10.2318 14.0349 9.76509L13.2883 9.34509C13.3699 8.96009 13.4049 8.56342 13.4049 8.15509C13.4049 7.74676 13.3583 7.35009 13.2883 6.96509L14.0349 6.54509C14.8749 6.07842 15.1783 5.00509 14.7116 4.16509C14.2449 3.32509 13.1716 3.02175 12.3316 3.48842L11.5733 3.90842C10.9433 3.31342 10.1733 2.87009 9.33327 2.60175V1.71509C9.33327 0.746755 8.55161 -0.0349121 7.58327 -0.0349121C6.61494 -0.0349121 5.83327 0.746755 5.83327 1.71509V2.60175C4.99327 2.87009 4.22327 3.31342 3.59327 3.90842L2.83494 3.48842C1.99494 3.02175 0.921607 3.31342 0.45494 4.16509C-0.0117264 5.00509 0.27994 6.07842 1.13161 6.54509L1.87827 6.96509C1.79661 7.35009 1.76161 7.74676 1.76161 8.15509C1.76161 8.56342 1.80827 8.96009 1.87827 9.34509L1.13161 9.76509C0.291607 10.2318 -0.0117264 11.3051 0.45494 12.1451C0.76994 12.7168 1.37661 13.0434 1.98327 13.0434C2.27494 13.0434 2.56661 12.9734 2.83494 12.8218L3.59327 12.4018C4.22327 12.9968 4.99327 13.4401 5.83327 13.7084V14.5951C5.83327 15.5634 6.61494 16.3451 7.58327 16.3451C8.55161 16.3451 9.33327 15.5634 9.33327 14.5951V13.7084C10.1733 13.4401 10.9433 12.9968 11.5733 12.4018L12.3316 12.8218ZM7.58327 10.5001C6.29994 10.5001 5.24994 9.45009 5.24994 8.16676C5.24994 6.88342 6.29994 5.83342 7.58327 5.83342C8.86661 5.83342 9.91661 6.88342 9.91661 8.16676C9.91661 9.45009 8.86661 10.5001 7.58327 10.5001ZM26.2849 21.4318L25.5383 21.0118C25.6199 20.6268 25.6549 20.2301 25.6549 19.8218C25.6549 19.4134 25.6083 19.0168 25.5383 18.6318L26.2849 18.2118C27.1249 17.7451 27.4283 16.6718 26.9616 15.8318C26.4949 14.9918 25.4216 14.6884 24.5816 15.1551L23.8233 15.5751C23.1933 14.9801 22.4233 14.5368 21.5833 14.2684V13.3818C21.5833 12.4134 20.8016 11.6318 19.8333 11.6318C18.8649 11.6318 18.0833 12.4134 18.0833 13.3818V14.2684C17.2433 14.5368 16.4733 14.9801 15.8433 15.5751L15.0849 15.1551C14.2449 14.6884 13.1716 14.9801 12.7049 15.8318C12.2383 16.6718 12.5299 17.7451 13.3816 18.2118L14.1283 18.6318C14.0466 19.0168 14.0116 19.4134 14.0116 19.8218C14.0116 20.2301 14.0583 20.6268 14.1283 21.0118L13.3816 21.4318C12.5416 21.8984 12.2383 22.9718 12.7049 23.8118C13.0199 24.3834 13.6266 24.7101 14.2333 24.7101C14.5249 24.7101 14.8166 24.6401 15.0849 24.4884L15.8433 24.0684C16.4733 24.6634 17.2433 25.1068 18.0833 25.3751V26.2618C18.0833 27.2301 18.8649 28.0118 19.8333 28.0118C20.8016 28.0118 21.5833 27.2301 21.5833 26.2618V25.3751C22.4233 25.1068 23.1933 24.6634 23.8233 24.0684L24.5816 24.4884C24.8499 24.6401 25.1416 24.7101 25.4333 24.7101C26.0516 24.7101 26.6466 24.3834 26.9616 23.8118C27.4283 22.9718 27.1366 21.8984 26.2849 21.4318ZM19.8333 22.1668C18.5499 22.1668 17.4999 21.1168 17.4999 19.8334C17.4999 18.5501 18.5499 17.5001 19.8333 17.5001C21.1166 17.5001 22.1666 18.5501 22.1666 19.8334C22.1666 21.1168 21.1166 22.1668 19.8333 22.1668Z" fill="#3BD7CA"/>
</g>
<defs>
<clipPath id="clip0_526_657">
<rect width="28" height="28" fill="white"/>
</clipPath>
</defs>
</svg>
