<svg width="24" height="24" viewBox="0 0 24 24" fill="none" xmlns="http://www.w3.org/2000/svg">
<g clip-path="url(#clip0_526_668)">
<path d="M2.67444 14.5833H-0.000138886V13.6111C-0.0148567 12.2479 0.346161 10.907 1.04331 9.73552C1.74046 8.564 2.7468 7.60712 3.95194 6.96986C5.13916 6.38449 6.42493 6.02513 7.74361 5.91014C7.16741 6.6231 6.58958 7.38079 6.01014 8.1832C4.70504 10.2102 3.58847 12.3525 2.67444 14.5833ZM15.15 17.3182C13.1232 18.625 10.9808 19.7432 8.74986 20.6588V23.3333H9.72208C11.0853 23.3481 12.4262 22.987 13.5977 22.2899C14.7692 21.5927 15.7261 20.5864 16.3633 19.3813C16.9487 18.194 17.3081 16.9083 17.4231 15.5896C16.7133 16.1632 15.9556 16.7394 15.15 17.3182ZM23.3332 2.90792C23.2039 7.14 20.1569 11.3371 14.0174 15.7413C12.3466 16.8243 10.584 17.7587 8.74986 18.5335V17.9861C8.74552 17.085 8.38561 16.222 7.74841 15.5848C7.1112 14.9476 6.24822 14.5877 5.34708 14.5833H4.79972C5.57546 12.7492 6.5111 10.9869 7.59583 9.31681C11.9893 3.18694 16.1796 0.14 20.4049 0C22.5107 0 23.3332 0.860417 23.3332 2.90792ZM17.4999 8.26389C17.4999 7.61927 17.2438 7.00104 16.788 6.54523C16.3322 6.08941 15.7139 5.83333 15.0693 5.83333C14.4247 5.83333 13.8065 6.08941 13.3506 6.54523C12.8948 7.00104 12.6388 7.61927 12.6388 8.26389C12.6388 8.90851 12.8948 9.52673 13.3506 9.98255C13.8065 10.4384 14.4247 10.6944 15.0693 10.6944C15.7139 10.6944 16.3322 10.4384 16.788 9.98255C17.2438 9.52673 17.4999 8.90851 17.4999 8.26389ZM1.33569 23.1243C2.43042 22.9299 5.07 22.3874 5.95181 21.5065C6.22267 21.2357 6.43752 20.9141 6.58411 20.5602C6.7307 20.2063 6.80615 19.827 6.80615 19.444C6.80615 19.0609 6.7307 18.6816 6.58411 18.3277C6.43752 17.9738 6.22267 17.6523 5.95181 17.3814C5.68095 17.1105 5.35939 16.8957 5.00549 16.7491C4.65159 16.6025 4.27229 16.527 3.88924 16.527C3.11562 16.527 2.37369 16.8344 1.82667 17.3814C0.945833 18.2632 0.402361 20.9028 0.208889 21.9975L-0.03125 23.3644L1.33569 23.1243Z" fill="#3BD7CA"/>
</g>
<defs>
<clipPath id="clip0_526_668">
<rect width="23.3333" height="23.3333" fill="white"/>
</clipPath>
</defs>
</svg>
