<svg width="20" height="20" viewBox="0 0 20 20" fill="none" xmlns="http://www.w3.org/2000/svg">
<g clip-path="url(#clip0_526_676)">
<path d="M2.5 4.58325C2.5 3.89325 3.06 3.33325 3.75 3.33325C4.44 3.33325 5 3.89325 5 4.58325C5 5.27325 4.44 5.83325 3.75 5.83325C3.06 5.83325 2.5 5.27325 2.5 4.58325ZM7.08333 5.83325C7.77333 5.83325 8.33333 5.27325 8.33333 4.58325C8.33333 3.89325 7.77333 3.33325 7.08333 3.33325C6.39333 3.33325 5.83333 3.89325 5.83333 4.58325C5.83333 5.27325 6.39333 5.83325 7.08333 5.83325ZM20 4.99992V14.9999C20 17.2974 18.1308 19.1666 15.8333 19.1666H4.16667C1.86917 19.1666 0 17.2974 0 14.9999V4.99992C0 2.70242 1.86917 0.833252 4.16667 0.833252H15.8333C18.1308 0.833252 20 2.70242 20 4.99992ZM1.66667 4.99992V6.66659H18.3333V4.99992C18.3333 3.62159 17.2117 2.49992 15.8333 2.49992H4.16667C2.78833 2.49992 1.66667 3.62159 1.66667 4.99992ZM18.3333 14.9999V8.33325H1.66667V14.9999C1.66667 16.3783 2.78833 17.4999 4.16667 17.4999H15.8333C17.2117 17.4999 18.3333 16.3783 18.3333 14.9999ZM8.50583 11.0058C8.83167 10.6799 8.83167 10.1533 8.50583 9.82742C8.18 9.50159 7.65333 9.50159 7.3275 9.82742L5.51 11.6449C4.78333 12.3716 4.78333 13.5533 5.52583 14.2949L7.34333 16.0208C7.67583 16.3383 8.20417 16.3249 8.52083 15.9908C8.83833 15.6574 8.82417 15.1299 8.49083 14.8133L6.68917 13.1016C6.6125 13.0249 6.6125 12.8999 6.68917 12.8233L8.50667 11.0058H8.50583ZM12.6725 9.82742C12.3467 9.50159 11.82 9.50159 11.4942 9.82742C11.1683 10.1533 11.1683 10.6799 11.4942 11.0058L13.3117 12.8233C13.3883 12.8999 13.3883 13.0249 13.3208 13.0924L11.5217 14.8366C11.1917 15.1566 11.1833 15.6849 11.5042 16.0149C11.825 16.3458 12.3525 16.3533 12.6825 16.0324L14.4908 14.2791C15.2175 13.5524 15.2175 12.3708 14.4908 11.6441L12.6733 9.82659L12.6725 9.82742Z" fill="#3BD7CA"/>
</g>
<defs>
<clipPath id="clip0_526_676">
<rect width="20" height="20" fill="white"/>
</clipPath>
</defs>
</svg>
