<svg width="24" height="24" viewBox="0 0 24 24" fill="none" xmlns="http://www.w3.org/2000/svg">
<path d="M17.0001 14C15.2941 14 14.5001 14.794 14.5001 16.5C14.5001 18.206 15.2941 19 17.0001 19C18.7061 19 19.5001 18.206 19.5001 16.5C19.5001 14.794 18.7061 14 17.0001 14ZM17.0001 18C15.8511 18 15.5001 17.649 15.5001 16.5C15.5001 15.351 15.8511 15 17.0001 15C18.1491 15 18.5001 15.351 18.5001 16.5C18.5001 17.649 18.1491 18 17.0001 18ZM22.0871 17.671L21.4621 17.315C21.4881 17.047 21.5011 16.778 21.5011 16.5C21.5011 16.222 21.4881 15.953 21.4621 15.685L22.0871 15.329C22.5221 15.081 22.7791 14.792 22.8741 14.445C22.9691 14.098 22.8951 13.718 22.6481 13.283C22.1551 12.418 21.4661 12.231 20.6021 12.722L20.2431 12.927C19.7881 12.535 19.2121 12.271 18.5001 12.13V11.5C18.5001 10.505 17.9951 9.99995 17.0001 9.99995C16.0051 9.99995 15.5001 10.505 15.5001 11.5V12.13C14.7881 12.271 14.2121 12.535 13.7571 12.927L13.3981 12.722C12.5341 12.23 11.8461 12.419 11.3521 13.283C11.1051 13.718 11.0311 14.097 11.1261 14.445C11.2221 14.793 11.4791 15.082 11.9131 15.329L12.5391 15.685C12.5131 15.954 12.5001 16.223 12.5001 16.5C12.5001 16.777 12.5131 17.046 12.5391 17.314L11.9131 17.67C11.0481 18.163 10.8601 18.851 11.3521 19.716C11.8461 20.58 12.5341 20.77 13.3981 20.277L13.7571 20.072C14.2121 20.464 14.7871 20.727 15.5001 20.869V21.499C15.5001 22.494 16.0051 22.999 17.0001 22.999C17.9951 22.999 18.5001 22.494 18.5001 21.499V20.869C19.2121 20.727 19.7881 20.464 20.2431 20.072L20.6021 20.277C21.4661 20.77 22.1551 20.582 22.6481 19.716C22.8951 19.281 22.9691 18.901 22.8741 18.554C22.7791 18.206 22.5211 17.918 22.0871 17.671ZM21.7791 19.222C21.5621 19.605 21.4781 19.626 21.0971 19.409L20.4091 19.017C20.2031 18.901 19.9441 18.942 19.7871 19.12C19.3851 19.574 18.7801 19.844 17.9381 19.948C17.6881 19.979 17.4991 20.192 17.4991 20.444V21.5C17.4991 21.939 17.4381 22 16.9991 22C16.5601 22 16.4991 21.939 16.4991 21.5V20.444C16.4991 20.192 16.3111 19.979 16.0601 19.948C15.2181 19.844 14.6131 19.574 14.2111 19.12C14.1131 19.01 13.9761 18.952 13.8371 18.952C13.7521 18.952 13.6671 18.973 13.5891 19.017L12.9011 19.409C12.5191 19.627 12.4361 19.604 12.2191 19.222C12.0021 18.84 12.0241 18.757 12.4061 18.54L13.3191 18.02C13.4961 17.919 13.5941 17.72 13.5671 17.518C13.5211 17.181 13.4981 16.848 13.4981 16.5C13.4981 16.152 13.5201 15.82 13.5671 15.482C13.5941 15.28 13.4961 15.081 13.3191 14.98L12.4061 14.459C12.0241 14.242 12.0021 14.159 12.2181 13.777C12.4361 13.396 12.5191 13.372 12.9011 13.59L13.5891 13.982C13.7931 14.097 14.0531 14.057 14.2111 13.879C14.6141 13.425 15.2181 13.154 16.0601 13.051C16.3111 13.021 16.4991 12.808 16.4991 12.555V11.499C16.4991 11.06 16.5601 10.999 16.9991 10.999C17.4381 10.999 17.4991 11.06 17.4991 11.499V12.555C17.4991 12.808 17.6871 13.021 17.9381 13.051C18.7791 13.154 19.3841 13.425 19.7871 13.879C19.9441 14.057 20.2031 14.097 20.4091 13.982L21.0971 13.59C21.4771 13.373 21.5621 13.394 21.7791 13.777C21.9261 14.035 21.9201 14.144 21.9101 14.179C21.9001 14.214 21.8501 14.312 21.5921 14.458L20.6791 14.979C20.5011 15.081 20.4031 15.28 20.4311 15.482C20.4771 15.818 20.5001 16.151 20.5001 16.499C20.5001 16.847 20.4781 17.18 20.4311 17.516C20.4031 17.719 20.5011 17.918 20.6791 18.019L21.5921 18.539C21.8501 18.685 21.9001 18.783 21.9101 18.818C21.9201 18.853 21.9261 18.964 21.7791 19.222ZM7.00009 4.99995C5.29409 4.99995 4.50009 5.79395 4.50009 7.49995C4.50009 9.20595 5.29409 9.99995 7.00009 9.99995C8.70609 9.99995 9.50009 9.20595 9.50009 7.49995C9.50009 5.79395 8.70609 4.99995 7.00009 4.99995ZM7.00009 8.99995C5.85109 8.99995 5.50009 8.64895 5.50009 7.49995C5.50009 6.35095 5.85109 5.99995 7.00009 5.99995C8.14909 5.99995 8.50009 6.35095 8.50009 7.49995C8.50009 8.64895 8.14909 8.99995 7.00009 8.99995ZM12.6481 10.717C13.1401 9.85195 12.9521 9.16295 12.0871 8.67095L11.4611 8.31495C11.4871 8.04595 11.5001 7.77695 11.5001 7.50095C11.5001 7.22495 11.4871 6.95495 11.4611 6.68695L12.0871 6.33095C12.9521 5.83795 13.1401 5.14995 12.6481 4.28495C12.1551 3.41895 11.4651 3.23095 10.6021 3.72395L10.2431 3.92895C9.78809 3.53695 9.21309 3.27395 8.50009 3.13195V2.50195C8.50009 1.50695 7.99509 1.00195 7.00009 1.00195C6.00509 1.00195 5.50009 1.50695 5.50009 2.50195V3.13195C4.78809 3.27395 4.21209 3.53695 3.75709 3.92895L3.39809 3.72395C2.53309 3.23195 1.84609 3.42095 1.35209 4.28495C0.860085 5.14995 1.04809 5.83895 1.91309 6.33095L2.53909 6.68695C2.51309 6.95595 2.50009 7.22495 2.50009 7.50095C2.50009 7.77695 2.51309 8.04695 2.53909 8.31495L1.91309 8.67095C1.04809 9.16395 0.860085 9.85195 1.35209 10.717C1.84509 11.582 2.53309 11.772 3.39809 11.278L3.75709 11.073C4.21209 11.465 4.78709 11.728 5.50009 11.87V12.5C5.50009 13.495 6.00509 14 7.00009 14C7.99509 14 8.50009 13.495 8.50009 12.5V11.87C9.21209 11.728 9.78809 11.465 10.2431 11.073L10.6021 11.278C11.4671 11.77 12.1551 11.581 12.6481 10.717ZM10.4091 10.017C10.2041 9.89995 9.94509 9.94195 9.78709 10.12C9.38509 10.574 8.78009 10.844 7.93809 10.948C7.68809 10.979 7.49909 11.192 7.49909 11.444V12.5C7.49909 12.939 7.43809 13 6.99909 13C6.56009 13 6.49909 12.939 6.49909 12.5V11.444C6.49909 11.192 6.31109 10.979 6.06009 10.948C5.21809 10.844 4.61309 10.574 4.21109 10.12C4.11309 10.01 3.97609 9.95195 3.83709 9.95195C3.75209 9.95195 3.66709 9.97295 3.58909 10.017L2.90109 10.409C2.51909 10.626 2.43609 10.604 2.21909 10.222C2.00209 9.83995 2.02409 9.75695 2.40609 9.53995L3.31909 9.01995C3.49609 8.91895 3.59409 8.71995 3.56709 8.51795C3.52109 8.18095 3.49809 7.84795 3.49809 7.49995C3.49809 7.15195 3.52009 6.81995 3.56709 6.48195C3.59409 6.27895 3.49609 6.08095 3.31909 5.97995L2.40609 5.45995C2.02409 5.24295 2.00209 5.15995 2.21809 4.77795C2.43609 4.39695 2.51909 4.37395 2.90109 4.59095L3.58909 4.98295C3.79309 5.09795 4.05209 5.05695 4.21109 4.87995C4.61309 4.42595 5.21809 4.15595 6.06009 4.05195C6.31009 4.02095 6.49909 3.80795 6.49909 3.55595V2.49995C6.49909 2.06095 6.56009 1.99995 6.99909 1.99995C7.43809 1.99995 7.49909 2.06095 7.49909 2.49995V3.55595C7.49909 3.80795 7.68709 4.02095 7.93809 4.05195C8.78009 4.15595 9.38509 4.42595 9.78709 4.87995C9.94409 5.05695 10.2041 5.09795 10.4091 4.98295L11.0971 4.59095C11.4771 4.37495 11.5611 4.39495 11.7791 4.77795C11.9961 5.15995 11.9741 5.24295 11.5921 5.45995L10.6791 5.97995C10.5021 6.08095 10.4041 6.27995 10.4311 6.48195C10.4771 6.81895 10.5001 7.15195 10.5001 7.49995C10.5001 7.84795 10.4781 8.17995 10.4311 8.51795C10.4041 8.72095 10.5021 8.91895 10.6791 9.01995L11.5921 9.53995C11.9741 9.75695 11.9961 9.83995 11.7791 10.222C11.5621 10.605 11.4791 10.627 11.0971 10.409L10.4091 10.017Z" fill="#3BD7CA"/>
</svg>
