<svg width="20" height="20" viewBox="0 0 20 20" fill="none" xmlns="http://www.w3.org/2000/svg">
<g clip-path="url(#clip0_526_665)">
<path d="M15.0001 7.08332C15.0001 7.63585 14.7806 8.16576 14.3899 8.55646C13.9992 8.94716 13.4693 9.16665 12.9167 9.16665C12.3642 9.16665 11.8343 8.94716 11.4436 8.55646C11.0529 8.16576 10.8334 7.63585 10.8334 7.08332C10.8334 6.53078 11.0529 6.00088 11.4436 5.61018C11.8343 5.21948 12.3642 4.99998 12.9167 4.99998C13.4693 4.99998 13.9992 5.21948 14.3899 5.61018C14.7806 6.00088 15.0001 6.53078 15.0001 7.08332ZM14.9951 12.805C14.9493 14.129 14.6187 15.4277 14.0259 16.6125C13.4797 17.6455 12.6595 18.508 11.6553 19.1056C10.6512 19.7032 9.50183 20.0126 8.33339 20H7.50006V15.4166C7.49633 14.6442 7.18784 13.9045 6.64167 13.3584C6.09549 12.8122 5.35579 12.5037 4.58339 12.5H5.53429e-05V11.6667C-0.0125599 10.4982 0.296884 9.34887 0.89444 8.34471C1.492 7.34055 2.35458 6.52038 3.38756 5.97415C4.57236 5.38132 5.871 5.05076 7.19506 5.00498C8.40909 3.43685 9.96819 2.16959 11.7513 1.30159C13.5344 0.43359 15.4936 -0.0118049 17.4767 -1.60773e-05C17.8067 -0.00210126 18.1339 0.0609697 18.4394 0.18558C18.745 0.310191 19.023 0.493891 19.2574 0.726147C19.4918 0.958403 19.6781 1.23465 19.8055 1.53904C19.933 1.84343 19.9991 2.16999 20.0001 2.49998C20.0142 4.48683 19.5699 6.45017 18.7019 8.23742C17.8339 10.0247 16.5654 11.5877 14.9951 12.805ZM1.73672 10.8333H3.62172C4.24059 9.45497 4.96758 8.12777 5.79589 6.86415C5.22057 6.998 4.66309 7.1994 4.13506 7.46415C3.5 7.79949 2.95231 8.27889 2.53583 8.86395C2.11936 9.44902 1.84568 10.1235 1.73672 10.8333ZM13.1359 14.2041C11.8723 15.0325 10.5451 15.7594 9.16672 16.3783V18.2633C9.87656 18.1544 10.551 17.8807 11.1361 17.4642C11.7211 17.0477 12.2005 16.5 12.5359 15.865C12.8006 15.337 13.002 14.7795 13.1359 14.2041ZM18.3334 2.47665C18.3273 2.25971 18.2368 2.05369 18.0812 1.90242C17.9256 1.75115 17.7171 1.66657 17.5001 1.66665C13.2001 1.78915 10.2917 3.43665 7.48506 7.35165C6.70184 8.47932 6.01311 9.66976 5.42589 10.9108C6.33582 11.0803 7.17313 11.5213 7.82761 12.1758C8.48209 12.8302 8.92309 13.6676 9.09256 14.5775C10.3336 13.9903 11.5241 13.3015 12.6517 12.5183C16.5634 9.70832 18.2109 6.79998 18.3334 2.47665ZM5.10172 14.8991C5.56736 15.3696 5.82856 16.0047 5.82856 16.6666C5.82856 17.3286 5.56736 17.9637 5.10172 18.4341C4.34589 19.1891 2.08339 19.655 1.14506 19.8208L-0.0266113 20.0266L0.179222 18.855C0.345889 17.9166 0.810889 15.6542 1.56589 14.8983C2.04235 14.4439 2.67554 14.1904 3.33397 14.1906C3.99241 14.1907 4.62548 14.4445 5.10172 14.8991ZM4.16672 16.6666C4.16702 16.5572 4.14559 16.4487 4.10368 16.3476C4.06177 16.2465 4.0002 16.1547 3.92256 16.0775C3.76628 15.9213 3.55436 15.8335 3.33339 15.8335C3.11242 15.8335 2.9005 15.9213 2.74422 16.0775C2.42651 16.651 2.20337 17.2721 2.08339 17.9166C2.72823 17.7962 3.34949 17.5728 3.92339 17.255C4.00079 17.1778 4.06214 17.0861 4.1039 16.9852C4.14567 16.8842 4.16702 16.7759 4.16672 16.6666Z" fill="#3BD7CA"/>
</g>
<defs>
<clipPath id="clip0_526_665">
<rect width="20" height="20" fill="white"/>
</clipPath>
</defs>
</svg>
