<svg width="24" height="24" viewBox="0 0 24 24" fill="none" xmlns="http://www.w3.org/2000/svg">
<path d="M24 8V6C24 3.243 21.757 1 19 1H5C2.243 1 0 3.243 0 6V8H24ZM8.5 3C9.328 3 10 3.672 10 4.5C10 5.328 9.328 6 8.5 6C7.672 6 7 5.328 7 4.5C7 3.672 7.672 3 8.5 3ZM4.5 3C5.328 3 6 3.672 6 4.5C6 5.328 5.328 6 4.5 6C3.672 6 3 5.328 3 4.5C3 3.672 3.672 3 4.5 3ZM0 10V18C0 20.757 2.243 23 5 23H19C21.757 23 24 20.757 24 18V10H0ZM8.026 16.722L10.188 18.776C10.588 19.156 10.605 19.789 10.224 20.189C9.844 20.59 9.21 20.606 8.811 20.225L6.63 18.154C5.739 17.264 5.739 15.846 6.611 14.974L8.792 12.793C9.183 12.402 9.815 12.402 10.206 12.793C10.597 13.184 10.597 13.816 10.206 14.207L8.025 16.388C7.933 16.48 7.933 16.63 8.025 16.722H8.026ZM17.387 18.136L15.217 20.24C14.821 20.624 14.188 20.615 13.803 20.219C13.418 19.823 13.428 19.189 13.824 18.805L15.983 16.712C16.064 16.631 16.064 16.481 15.972 16.389L13.791 14.208C13.4 13.817 13.4 13.185 13.791 12.794C14.182 12.403 14.814 12.403 15.205 12.794L17.386 14.975C18.258 15.847 18.258 17.265 17.386 18.137L17.387 18.136Z" fill="#3BD7CA"/>
</svg>
